<?xml version="1.0" standalone="no"?>
<!DOCTYPE svg PUBLIC "-//W3C//DTD SVG 20010904//EN"
 "http://www.w3.org/TR/2001/REC-SVG-20010904/DTD/svg10.dtd">
<svg version="1.0" xmlns="http://www.w3.org/2000/svg"
 width="1667.000000pt" height="1667.000000pt" viewBox="0 0 1667.000000 1667.000000"
 preserveAspectRatio="xMidYMid meet">
<metadata>
Created by potrace 1.16, written by Peter Selinger 2001-2019
</metadata>
<g transform="translate(0.000000,1667.000000) scale(0.100000,-0.100000)"
fill="#000000" stroke="none">
<path d="M8318 12450 c-36 -28 -54 -75 -40 -105 13 -28 37 -33 46 -10 3 8 12
15 20 15 98 0 -155 -649 -467 -1199 -87 -152 -82 -146 -232 -243 -76 -48 -240
-168 -308 -226 -82 -68 -360 -356 -413 -427 -161 -215 -189 -275 -182 -393 5
-82 28 -140 68 -177 38 -34 120 -27 205 18 113 60 281 216 456 427 143 172
463 635 568 822 26 46 39 59 74 72 88 33 144 46 203 46 114 0 141 -52 105
-201 -46 -194 -103 -318 -170 -371 -26 -21 -78 -69 -116 -108 -60 -60 -75 -69
-106 -70 -117 -1 -259 -118 -259 -215 0 -14 2 -25 5 -25 3 0 27 16 54 35 70
51 93 47 49 -7 -101 -125 -188 -288 -196 -367 -8 -89 32 -114 106 -67 71 45
233 228 334 376 18 27 37 50 42 50 23 0 245 -201 268 -244 8 -16 -17 -44 -179
-205 -359 -354 -507 -570 -584 -851 -68 -246 -59 -522 23 -779 102 -320 285
-542 558 -681 150 -76 357 -128 522 -133 91 -2 93 -1 96 22 2 13 0 27 -5 32
-4 4 -44 11 -88 14 -370 30 -710 207 -874 456 -162 246 -195 564 -90 879 94
284 253 489 699 903 57 53 107 97 111 97 16 0 217 -321 310 -495 28 -53 58
-99 65 -102 17 -6 91 51 99 77 11 35 -14 126 -121 448 -57 172 -104 315 -104
318 0 2 26 33 58 67 103 111 259 304 294 364 39 66 89 190 109 273 8 32 14
109 14 185 0 115 -3 135 -23 176 -17 34 -33 51 -62 64 -102 46 -328 -17 -550
-154 l-65 -39 -7 36 c-14 72 -9 364 7 455 40 228 156 407 313 484 48 23 70 28
137 28 69 0 89 -4 145 -31 174 -82 297 -299 330 -581 22 -178 -12 -328 -98
-431 -51 -62 -55 -76 -29 -100 45 -40 65 -45 113 -27 115 44 177 204 176 455
0 274 -81 523 -215 667 -212 227 -469 248 -679 55 -204 -187 -300 -491 -285
-907 l6 -160 -45 -32 c-24 -18 -49 -33 -54 -33 -12 0 -13 23 -1 36 22 23 46
163 46 264 0 117 -16 166 -67 203 -35 26 -111 32 -193 17 -36 -7 -69 -10 -72
-7 -3 4 16 50 42 104 26 54 69 152 95 218 169 425 220 727 146 874 -47 92 -86
112 -138 71z m870 -1633 c22 -18 9 -91 -32 -171 -36 -70 -100 -161 -186 -268
-63 -76 -64 -77 -45 -33 79 187 109 274 109 320 1 45 -1 50 -27 59 -19 7 -33
7 -44 0 -9 -5 -32 -67 -54 -139 -54 -186 -141 -388 -152 -355 -8 23 -75 310
-83 352 -6 37 -6 37 64 83 97 62 288 154 342 164 51 9 88 5 108 -12z m-1608
-121 c0 -8 -5 -18 -10 -21 -6 -4 -45 -52 -87 -108 -65 -87 -167 -211 -289
-356 -74 -88 -232 -244 -274 -271 -95 -61 -111 -28 -39 79 87 128 178 236 314
369 118 115 359 321 378 322 4 0 7 -6 7 -14z m1067 -416 c20 -85 38 -165 41
-177 3 -17 -10 -37 -53 -83 -32 -33 -63 -60 -69 -60 -7 0 -28 21 -48 48 -40
51 -186 195 -232 227 l-28 20 18 38 c12 26 57 69 139 135 66 54 131 106 145
115 l25 18 13 -63 c8 -35 30 -133 49 -218z"/>
<path d="M5585 6754 c-123 -46 -218 -235 -245 -487 -23 -212 35 -337 157 -337
165 0 289 201 319 520 8 77 -10 203 -34 244 -38 65 -120 90 -197 60z m73 -56
c19 -19 14 -134 -14 -300 -54 -324 -98 -441 -149 -398 -21 17 -19 101 5 235
11 61 25 139 30 174 28 172 52 252 84 284 21 20 28 21 44 5z"/>
<path d="M9415 6741 c-89 -51 -121 -143 -91 -261 9 -36 46 -127 83 -203 61
-128 65 -141 61 -192 -6 -65 -20 -85 -63 -85 -46 0 -92 41 -105 93 -17 66 -20
71 -30 61 -12 -12 -54 -214 -46 -221 3 -4 15 2 26 12 19 17 23 17 94 1 69 -17
78 -17 129 -2 144 42 186 196 105 381 -146 329 -142 313 -99 356 23 23 36 29
53 24 43 -12 73 -42 93 -92 11 -28 24 -52 29 -54 10 -4 58 182 50 190 -2 2
-14 -1 -27 -8 -18 -10 -33 -8 -81 9 -80 27 -121 25 -181 -9z"/>
<path d="M10665 6754 c-122 -45 -218 -235 -245 -487 -23 -212 35 -337 157
-337 97 0 179 65 238 190 87 187 107 483 39 587 -34 53 -117 73 -189 47z m73
-56 c19 -19 14 -134 -13 -295 -56 -330 -99 -446 -150 -403 -21 17 -19 101 5
235 11 61 25 139 30 174 28 172 52 252 84 284 21 20 28 21 44 5z"/>
<path d="M4575 6739 c-3 -4 0 -17 6 -27 10 -15 1 -83 -45 -348 -67 -380 -71
-400 -91 -408 -38 -14 -10 -26 60 -26 75 0 92 9 64 37 -7 7 3 88 36 274 26
145 48 265 49 267 2 1 8 -23 14 -55 41 -212 72 -356 77 -361 3 -3 9 -1 14 4 9
9 116 199 185 329 21 39 41 74 45 78 5 5 0 -36 -10 -90 -10 -54 -30 -172 -46
-263 -22 -133 -32 -169 -49 -187 -12 -12 -19 -24 -16 -27 11 -12 191 -6 198 6
4 6 2 14 -4 16 -7 2 -12 11 -12 20 0 10 27 175 61 367 47 266 66 355 80 371
11 11 19 23 19 27 0 9 -152 9 -174 1 -9 -3 -57 -85 -108 -181 -68 -130 -93
-170 -98 -157 -6 16 -38 193 -56 312 l-5 32 -94 -1 c-52 0 -97 -5 -100 -10z"/>
<path d="M6873 6729 c-135 -67 -225 -283 -225 -539 0 -112 22 -199 60 -233 55
-50 134 -54 210 -12 l44 25 18 -23 c10 -12 22 -19 26 -15 4 4 22 92 40 195 19
102 38 191 44 197 26 26 9 34 -80 35 -104 2 -119 -3 -94 -30 17 -18 16 -27 -9
-171 -28 -159 -44 -196 -81 -182 -45 17 -47 101 -5 341 37 220 46 256 76 316
46 93 119 80 138 -25 12 -63 31 -46 44 37 6 42 11 81 11 88 0 8 -27 13 -88 15
-72 2 -94 -2 -129 -19z"/>
<path d="M7471 6741 c-8 -5 -11 -16 -7 -28 7 -21 -24 -110 -174 -503 -45 -118
-90 -227 -101 -242 -10 -15 -19 -30 -19 -33 0 -3 32 -5 70 -5 64 0 86 9 60 25
-16 10 -12 39 16 114 l26 71 72 0 71 0 0 -86 c0 -71 -3 -87 -18 -95 -37 -21
-14 -29 87 -29 94 0 132 9 107 24 -12 8 -20 137 -27 476 -4 172 -11 300 -16
308 -12 14 -125 17 -147 3z m11 -433 l-3 -98 -55 0 c-31 0 -54 4 -52 8 2 4 26
72 53 150 l50 143 5 -53 c3 -29 4 -97 2 -150z"/>
<path d="M10113 6742 l-232 -2 -24 -78 c-48 -152 -43 -170 19 -77 20 31 46 62
57 70 26 18 87 20 87 3 0 -7 -25 -161 -57 -343 -42 -246 -61 -335 -75 -351
-10 -11 -18 -23 -18 -27 0 -4 47 -7 105 -7 58 0 105 3 105 6 0 3 -4 13 -10 23
-6 13 8 117 51 356 33 186 62 342 65 346 3 5 21 9 39 9 39 0 51 -15 80 -92 10
-27 21 -48 26 -48 10 0 21 112 17 170 l-3 45 -232 -3z"/>
<path d="M11815 6740 c-3 -5 0 -18 6 -28 9 -15 5 -56 -20 -203 -18 -101 -46
-260 -62 -354 -22 -126 -35 -175 -49 -190 -11 -12 -20 -24 -20 -28 0 -4 76 -7
169 -7 193 0 185 -3 217 93 19 57 12 71 -19 35 -33 -40 -87 -68 -131 -68 -44
0 -43 -21 -7 195 27 157 33 175 64 175 30 0 47 -18 47 -49 0 -32 14 -56 28
-47 6 4 14 28 17 54 3 26 10 65 15 87 19 88 20 105 4 105 -8 0 -17 -8 -21 -17
-16 -45 -45 -73 -74 -73 -36 0 -36 7 -9 155 11 60 20 110 20 112 0 2 14 3 30
3 48 0 87 -25 101 -65 20 -55 34 -36 34 46 l0 74 -167 2 c-96 2 -170 -1 -173
-7z"/>
<path d="M6075 6730 c-3 -5 -2 -10 3 -10 6 0 12 -6 15 -14 3 -8 -23 -174 -57
-370 -55 -311 -66 -360 -86 -381 l-23 -25 116 0 c71 0 117 4 117 10 0 6 -4 10
-9 10 -5 0 -12 8 -15 18 -8 27 48 325 62 330 24 8 32 -50 27 -187 -7 -191 -12
-181 97 -181 l89 0 -13 23 c-7 14 -13 86 -16 199 l-4 178 -37 6 c-56 10 -56
14 -3 45 84 48 133 129 135 225 1 59 -20 99 -64 121 -30 16 -325 18 -334 3z
m235 -60 c11 -20 -7 -150 -31 -226 -12 -38 -56 -82 -68 -68 -10 10 32 262 49
294 14 26 36 26 50 0z"/>
<path d="M7960 6735 c0 -2 5 -15 11 -28 8 -18 -2 -94 -50 -364 -57 -324 -74
-393 -93 -393 -4 0 -8 -4 -8 -10 0 -6 32 -10 75 -10 68 0 91 9 65 25 -15 9
-12 42 20 228 36 205 40 221 46 214 3 -2 31 -101 63 -218 33 -118 62 -222 66
-231 6 -14 19 -18 60 -18 l53 0 26 138 c14 75 44 245 67 377 31 178 46 245 60
261 11 11 19 23 19 27 0 4 -34 7 -75 7 -41 0 -75 -3 -75 -6 0 -3 5 -14 11 -26
8 -15 2 -69 -27 -234 -21 -118 -41 -209 -45 -202 -4 7 -33 110 -64 228 -32
118 -62 221 -68 228 -9 11 -137 19 -137 7z"/>
<path d="M11155 6730 c-3 -5 -2 -10 3 -10 6 0 12 -6 15 -14 3 -7 -23 -174 -57
-370 -55 -312 -65 -359 -86 -381 l-23 -25 116 0 c64 0 117 3 117 6 0 3 -7 12
-15 20 -17 17 -16 20 20 218 36 198 69 160 60 -69 -3 -79 -2 -150 1 -159 5
-13 23 -16 95 -16 82 0 89 1 80 18 -15 28 -20 89 -21 239 l0 142 -37 7 c-58
10 -58 14 -5 45 84 48 133 129 135 225 1 59 -20 99 -64 121 -30 16 -325 18
-334 3z m234 -63 c10 -25 -19 -209 -37 -243 -17 -31 -52 -58 -61 -48 -10 10
32 262 49 294 14 27 38 25 49 -3z"/>
<path d="M4311 5705 l0 -55 3900 0 3899 0 0 55 0 55 -3899 0 -3900 0 0 -55z"/>
</g>
</svg>
